<?xml version="1.0" standalone="no"?>
<!DOCTYPE svg PUBLIC "-//W3C//DTD SVG 20010904//EN"
 "http://www.w3.org/TR/2001/REC-SVG-20010904/DTD/svg10.dtd">
<svg version="1.0" xmlns="http://www.w3.org/2000/svg"
 width="1024.000000pt" height="1024.000000pt" viewBox="0 0 1024.000000 1024.000000"
 preserveAspectRatio="xMidYMid meet">

<g transform="translate(0.000000,1024.000000) scale(0.100000,-0.100000)"
fill="#000000" stroke="none">
<path d="M6273 8265 c-37 -16 -63 -60 -63 -107 0 -35 35 -102 95 -179 l35 -46
-55 -72 c-41 -55 -55 -81 -55 -106 0 -50 37 -75 111 -75 l59 0 0 -89 c0 -60 6
-109 20 -152 92 -300 438 -437 738 -291 74 36 181 141 215 212 51 107 57 152
57 444 0 253 -1 272 -21 313 -25 51 -58 79 -109 93 -20 5 -178 19 -351 30
-173 11 -375 25 -449 30 -172 12 -188 12 -227 -5z m934 -672 c-5 -64 -13 -100
-32 -139 -87 -179 -342 -219 -480 -77 -56 58 -78 116 -83 215 l-4 88 302 0
303 0 -6 -87z"/>
<path d="M2373 8120 c-158 -5 -163 -6 -188 -31 -52 -52 -38 -149 27 -189 24
-15 50 -20 101 -20 l67 0 0 -655 c0 -720 -2 -698 60 -730 37 -19 63 -19 100 0
63 33 60 -5 60 722 l0 663 1345 0 1345 0 0 -1885 0 -1885 -460 0 c-253 0 -460
2 -460 4 0 2 24 19 54 39 76 51 166 170 166 221 0 11 24 15 123 18 136 4 162
13 221 74 59 60 66 99 66 345 0 189 -3 225 -20 282 -27 88 -89 168 -171 223
-81 54 -118 67 -367 130 l-193 49 -107 172 c-59 95 -136 221 -172 280 -108
178 -207 258 -351 283 -43 7 -244 10 -609 8 l-545 -3 -65 -31 c-36 -17 -86
-51 -112 -76 -47 -47 -60 -70 -191 -353 -36 -77 -87 -185 -113 -240 l-49 -100
0 -430 c0 -470 1 -477 58 -542 53 -61 93 -73 242 -73 l131 0 11 -42 c18 -68
81 -148 152 -195 l63 -43 -290 0 c-282 0 -290 -1 -317 -22 -63 -49 -66 -127
-8 -178 l34 -30 3083 0 c2197 0 3092 3 3114 11 76 26 94 136 32 192 l-30 27
-360 0 -360 0 0 504 0 504 67 12 c163 28 278 138 312 298 17 83 15 1127 -3
1212 -39 185 -182 340 -363 395 -39 12 -145 15 -594 15 -517 0 -550 -1 -611
-20 -126 -39 -239 -134 -299 -252 -51 -100 -59 -158 -59 -425 l0 -243 -209 0
-209 0 -5 38 c-3 20 -6 418 -6 885 l-1 847 60 0 c110 0 160 41 160 130 0 32
-7 48 -33 76 l-33 36 -1564 1 c-861 1 -1638 0 -1727 -3z m4124 -1292 c6 -7
115 -200 243 -428 128 -228 275 -490 326 -581 52 -92 94 -170 94 -173 0 -3
-171 -6 -381 -6 -242 0 -387 -4 -400 -10 -38 -21 -49 -62 -49 -186 l0 -117
-37 6 c-42 7 -77 30 -106 69 -32 43 -39 192 -35 713 5 458 6 482 26 533 36 93
90 146 181 178 46 17 126 18 138 2z m960 -3 c68 -20 143 -88 174 -157 l24 -53
3 -570 c3 -617 2 -624 -51 -672 -20 -18 -77 -43 -98 -43 -5 0 -9 221 -9 491 0
440 -2 494 -17 519 -30 52 -102 66 -160 30 -18 -11 -34 -21 -35 -22 -1 -2 -4
-105 -7 -229 l-6 -227 -140 251 c-132 236 -316 561 -371 655 l-25 42 334 0
c268 0 343 -3 384 -15z m-4547 -1075 l0 -260 -350 0 c-192 0 -350 1 -350 3 0
2 45 99 101 217 104 222 138 273 194 289 16 5 114 10 218 10 l187 1 0 -260z
m751 228 c50 -30 61 -44 228 -320 l101 -168 -430 0 -430 0 0 261 0 260 243 -3
242 -3 46 -27z m2279 -312 c0 -196 2 -232 20 -287 24 -77 74 -147 138 -194 49
-36 153 -75 203 -75 l29 0 0 -500 0 -500 -407 2 -408 3 -3 815 c-2 448 0 848
3 888 l7 72 209 0 209 0 0 -224z m1330 -901 l0 -655 -130 0 -130 0 0 496 0
496 -29 29 c-39 39 -106 41 -148 5 l-28 -24 -3 -501 -3 -501 -129 0 -130 0 0
655 0 655 365 0 365 0 0 -655z m-2863 455 c220 -58 265 -75 309 -119 59 -58
64 -80 64 -280 0 -219 1 -217 -108 -220 l-71 -2 -32 66 c-39 79 -122 166 -193
200 -107 51 -256 51 -358 -1 -94 -48 -185 -153 -212 -246 -5 -17 -29 -18 -324
-18 l-319 0 -33 68 c-42 83 -116 159 -195 198 -56 27 -68 29 -175 29 -104 0
-121 -3 -172 -27 -77 -36 -151 -107 -188 -181 -16 -33 -30 -66 -30 -74 0 -10
-21 -13 -86 -13 -136 0 -124 -33 -124 345 l0 325 1027 0 1026 0 194 -50z
m-1574 -544 c77 -32 135 -135 121 -213 -21 -116 -114 -194 -215 -180 -161 22
-236 226 -126 346 50 54 151 76 220 47z m1434 3 c47 -17 102 -79 118 -132 26
-88 -6 -177 -84 -232 -37 -26 -52 -30 -106 -30 -54 0 -70 4 -107 30 -106 74
-119 236 -26 322 51 48 141 66 205 42z m-443 -355 c33 -75 108 -159 171 -189
l40 -20 -278 -3 c-152 -1 -402 -1 -555 0 l-277 3 46 27 c63 37 125 108 161
184 l30 64 317 0 317 0 28 -66z"/>
<path d="M2958 7453 c-14 -9 -31 -27 -37 -40 -16 -36 -14 -893 2 -913 24 -31
62 -50 100 -50 31 0 46 7 73 34 l34 34 0 351 0 351 38 1 c42 1 1563 0 1575 0
4 -1 7 -251 7 -556 l0 -555 -189 0 c-172 0 -190 -2 -213 -20 -58 -45 -61 -129
-7 -174 l31 -26 268 0 268 0 31 29 31 29 0 727 0 727 -34 34 -34 34 -958 0
c-876 -1 -961 -2 -986 -17z"/>
<path d="M2110 3236 c-108 -31 -187 -94 -231 -182 -20 -40 -24 -64 -24 -134 0
-100 19 -144 86 -204 54 -49 117 -76 259 -111 192 -47 230 -71 230 -148 0 -87
-67 -137 -184 -137 -100 1 -161 38 -185 111 -13 41 -29 49 -107 49 -84 0 -113
-9 -121 -38 -9 -39 23 -125 67 -175 86 -97 189 -132 375 -125 103 3 128 8 177
30 130 60 198 162 198 297 0 89 -23 154 -72 203 -53 53 -118 81 -284 124 -77
20 -148 41 -159 46 -44 23 -65 51 -65 87 0 83 53 124 161 123 89 0 148 -27
175 -80 10 -20 24 -40 29 -44 6 -4 45 -8 87 -8 93 0 112 13 102 68 -20 103
-71 170 -169 218 -73 36 -82 38 -188 41 -71 1 -128 -2 -157 -11z"/>
<path d="M3681 3234 c-172 -46 -307 -187 -357 -371 -21 -78 -20 -268 1 -347
49 -184 178 -316 352 -361 73 -19 233 -19 306 0 121 31 221 108 275 210 25 47
27 60 30 206 3 138 2 157 -14 170 -24 20 -401 27 -426 7 -13 -10 -18 -30 -19
-78 -4 -112 -6 -110 128 -110 l115 0 -4 -54 c-6 -72 -42 -120 -116 -153 -47
-22 -64 -25 -132 -21 -183 11 -284 140 -284 363 1 226 102 355 278 355 109 -1
178 -39 226 -126 l26 -49 60 -3 c32 -1 77 1 99 6 39 8 40 10 39 48 -1 56 -45
145 -97 198 -50 50 -114 85 -196 110 -68 20 -216 20 -290 0z"/>
<path d="M5827 3235 c-183 -50 -317 -195 -363 -393 -22 -92 -14 -271 15 -364
43 -136 156 -256 288 -309 51 -21 75 -24 198 -24 123 0 147 3 198 24 132 53
245 174 288 311 30 92 37 271 15 364 -47 200 -181 344 -363 391 -69 18 -210
18 -276 0z m257 -210 c56 -27 113 -91 138 -155 19 -46 22 -75 23 -186 0 -130
0 -131 -35 -199 -42 -82 -101 -127 -186 -145 -133 -28 -252 35 -309 162 -22
49 -29 82 -33 154 -10 186 58 326 180 376 56 23 168 20 222 -7z"/>
<path d="M2876 3214 c-14 -14 -16 -75 -16 -524 0 -449 2 -510 16 -524 11 -12
36 -16 95 -16 132 0 119 -60 119 538 0 390 -3 521 -12 530 -19 19 -183 16
-202 -4z"/>
<path d="M4533 3219 c-10 -10 -13 -130 -13 -531 0 -596 -12 -538 110 -538 115
0 110 -10 110 204 l0 184 153 4 c132 3 158 6 201 26 80 36 131 85 168 160 31
62 33 74 33 167 0 89 -3 106 -28 157 -34 69 -91 120 -166 150 -51 20 -77 22
-306 26 -193 3 -253 1 -262 -9z m462 -203 c46 -20 75 -69 75 -129 0 -59 -21
-102 -63 -127 -27 -17 -51 -20 -149 -20 l-118 0 0 145 0 145 110 0 c74 0 122
-5 145 -14z"/>
<path d="M6703 3224 c-10 -4 -13 -121 -13 -534 l0 -528 23 -6 c29 -8 126 -8
166 0 l31 7 0 208 0 209 78 0 77 0 105 -212 105 -213 95 -3 c108 -3 140 2 140
23 0 8 -47 109 -105 224 l-104 209 50 33 c83 53 128 134 136 244 11 143 -43
245 -161 305 l-69 35 -271 2 c-149 1 -277 0 -283 -3z m491 -209 c83 -40 85
-169 3 -229 -25 -18 -46 -21 -158 -25 l-129 -3 0 136 0 136 126 0 c91 0 135
-4 158 -15z"/>
<path d="M7616 3217 c-20 -15 -33 -90 -22 -131 13 -51 27 -56 167 -56 l129 0
0 -424 c0 -383 2 -426 17 -441 22 -23 188 -18 203 5 6 9 10 189 10 438 l0 422
128 0 c157 0 162 3 162 103 0 46 -5 70 -16 81 -13 14 -63 16 -388 16 -291 0
-376 -3 -390 -13z"/>
</g>
</svg>
